<svg width="32" height="32" viewBox="0 0 32 32" fill="none" xmlns="http://www.w3.org/2000/svg">
  <rect width="32" height="32" rx="6" fill="#FFFFFF"/>
  <path d="M16 8C13.3478 8 10.8043 9.05357 8.92893 10.9289C7.05357 12.8043 6 15.3478 6 18C6 20.6522 7.05357 23.1957 8.92893 25.0711C10.8043 26.9464 13.3478 28 16 28C18.6522 28 21.1957 26.9464 23.0711 25.0711C24.9464 23.1957 26 20.6522 26 18C26 15.3478 24.9464 12.8043 23.0711 10.9289C21.1957 9.05357 18.6522 8 16 8Z" stroke="#da2c24" stroke-width="2"/>
  <path d="M14 14H18V22H14V14Z" fill="#e87c22"/>
  <path d="M10 16H22V20H10V16Z" fill="#f2c921"/>
</svg>